# xmcd
# 
# Track frame offsets:
#     150
#     8500
#     20155
#     31981
#     39618
#     51519
#     61561
#     73879
#     84077
#     93032
#     105349
# 
# Disc length: 1477
# 
# Revision: 0
# Processed by: cddbd v1.5.2PL0 Copyright (c) Steve Scherf et al.
# Submitted via: fre:ac v1.0.17
# 
DISCID=7b05c30b
DTITLE=Johnny Cash - Country Boy
DYEAR=0
DGENRE=Country
TTITLE0=Country Boy
TTITLE1=So Doggone Lonesome
TTITLE2=Doin' My Time
TTITLE3=If The Good Lord's Willing (And The Creeks Don't Rise)
TTITLE4=Home Of The Blues
TTITLE5=I Was There When It Happened
TTITLE6=I Walk The Line
TTITLE7=There You Go
TTITLE8=Remember Me (I'm Then On Who Loves You)
TTITLE9=Next In Line
TTITLE10=My Treasure
EXTD=
EXTT0=
EXTT1=
EXTT2=
EXTT3=
EXTT4=
EXTT5=
EXTT6=
EXTT7=
EXTT8=
EXTT9=
EXTT10=
PLAYORDER=
